<?xml version="1.0" encoding="utf-8"?>
<!-- Generator: Adobe Illustrator 23.0.1, SVG Export Plug-In . SVG Version: 6.00 Build 0)  -->
<svg version="1.1" id="Capa_1" xmlns="http://www.w3.org/2000/svg" xmlns:xlink="http://www.w3.org/1999/xlink" x="0px" y="0px"
	 viewBox="0 0 11 11" style="enable-background:new 0 0 11 11;" xml:space="preserve">
<style type="text/css">
	.st0{fill:#323232;}
</style>
<path class="st0" d="M2.1,2.1C2.3,2,2.7,2,2.9,2.1c0,0,0,0,0,0l2.6,2.6l2.6-2.6C8.3,2,8.7,2,8.9,2.1s0.2,0.5,0,0.7L6.2,5.5l2.6,2.6
	C9,8.3,9,8.7,8.9,8.9S8.3,9,8.1,8.9L5.5,6.2L2.9,8.9C2.7,9,2.3,9,2.1,8.9S2,8.3,2.1,8.1l2.6-2.6L2.1,2.9C2,2.7,2,2.3,2.1,2.1
	C2.1,2.1,2.1,2.1,2.1,2.1z"/>
</svg>
